<?xml version="1.0" encoding="utf-8"?>
<!-- Generator: Adobe Illustrator 25.3.1, SVG Export Plug-In . SVG Version: 6.00 Build 0)  -->
<svg version="1.1" id="レイヤー_1" xmlns="http://www.w3.org/2000/svg" xmlns:xlink="http://www.w3.org/1999/xlink" x="0px"
	 y="0px" viewBox="0 0 900 224" style="enable-background:new 0 0 900 224;" xml:space="preserve">
<style type="text/css">
	.st0{display:none;}
	.st1{display:inline;}
	.st2{fill:none;stroke:#4A4A4A;stroke-width:12.5;stroke-linecap:round;stroke-miterlimit:10;}
	.st3{fill:none;stroke:#E83632;stroke-width:12.5;stroke-linecap:round;stroke-miterlimit:10;}
	.st4{fill:none;stroke:#2F479C;stroke-width:12.5;stroke-linecap:round;stroke-miterlimit:10;}
	.st5{fill:none;stroke:#00A53D;stroke-width:12.5;stroke-linecap:round;stroke-miterlimit:10;}
	.st6{display:inline;fill:none;stroke:#4A4A4A;stroke-width:12.5;stroke-linecap:round;stroke-miterlimit:10;}
	.st7{display:inline;fill:none;stroke:#888988;stroke-width:0.2547;stroke-miterlimit:10;}
	.st8{display:inline;fill:none;stroke:#888988;stroke-width:0.3939;stroke-miterlimit:10;}
	.st9{display:inline;fill:none;stroke:#888988;stroke-width:0.7647;stroke-miterlimit:9.9999;}
	.st10{fill:none;stroke:#113793;stroke-width:7.073;stroke-linecap:round;stroke-miterlimit:10;}
</style>
<g id="レイヤー_1_1_" class="st0">
	<g class="st1">
		<g>
			<g id="XMLID_19_">
				<g>
					<path class="st2" d="M4045.3,4659.9L4045.3,4659.9c-8.1-19.4-8.7-43.3-1.7-63.1"/>
					<path class="st2" d="M3985.8,4681c-6-20.2-20.5-39.1-38.5-50.1"/>
					<path class="st2" d="M4033.8,4722c20.9,2.7,41.9,14.1,55.5,30.1"/>
					<path class="st2" d="M3983,4578.9c16.7,12.8,39.6,19.6,60.6,17.9"/>
					<path class="st2" d="M3983,4578.9c-4.9,20.5-18.4,40.1-35.8,52.1"/>
					<path class="st3" d="M4017.5,4663.9c9.1-2.8,18.6-4.2,27.8-3.9"/>
					<path class="st3" d="M4014.6,4664.8c1-0.3,1.9-0.6,2.9-0.9"/>
					<path class="st3" d="M4005.2,4668.6c0.6-0.3,1.2-0.5,1.8-0.8"/>
					<path class="st3" d="M3993.7,4675c0.6-0.4,1.1-0.7,1.7-1.1c1.4-0.9,2.9-1.7,4.3-2.6c1.2-0.7,2.4-1.3,3.6-1.9"/>
					<path class="st3" d="M3990.4,4677.3c0.5-0.4,1.1-0.8,1.6-1.2"/>
					<path class="st3" d="M3988,4679.1c0.5-0.4,1-0.8,1.6-1.2"/>
					<path class="st2" d="M4107.9,4651.7c-18.5,10-42.2,13.2-62.6,8.3"/>
					<path class="st2" d="M4135.1,4708.7c-19.4,8.1-36.8,24.5-45.8,43.5"/>
					<path class="st4" d="M4033.8,4722c11-18,15.3-41.4,11.5-62.1l0,0"/>
					<path class="st2" d="M4135.1,4708.7c-15.3-14.5-25.6-36-27.2-57"/>
					<path class="st2" d="M3946.7,4775.5c20.2-6,44-4.1,63,4.9"/>
					<path class="st2" d="M3931.9,4714.1c20.7-3.8,41-16.3,53.8-33"/>
					<path class="st2" d="M4033.8,4722c-14.5,15.3-23.6,37.3-24.2,58.4"/>
					<path class="st5" d="M4033.8,4722L4033.8,4722c-19.8-7-38-22.5-48-41"/>
					<path class="st2" d="M3931.9,4714.1c11.9,17.3,17.5,40.5,14.8,61.4"/>
					<path class="st3" d="M3985.8,4681c0.7-0.6,1.5-1.3,2.3-1.9c0.5-0.4,1-0.8,1.6-1.2c0.3-0.2,0.5-0.4,0.8-0.6
						c0.5-0.4,1.1-0.8,1.6-1.2c0.5-0.4,1.1-0.8,1.7-1.1c0.6-0.4,1.1-0.7,1.7-1.1c1.4-0.9,2.9-1.7,4.3-2.6c1.2-0.7,2.4-1.3,3.6-1.9
						c0.6-0.3,1.3-0.6,1.9-0.9c0.6-0.3,1.2-0.5,1.8-0.8c2.5-1.1,5-2.1,7.6-3c1-0.3,1.9-0.6,2.9-0.9l0,0"/>
				</g>
			</g>
		</g>
	</g>
	<g class="st1">
		<path d="M4242.2,4605.6v23.2h44.5v11.5h-44.5v20.5h55.8v12.1h-49.2c12.6,17.7,32.1,35.5,56.2,48.1c-5.4,4.3-8.2,7.9-10.3,12
			c-20.1-12.6-32.5-21.7-52.5-46.2v52.9H4228v-52.6c-15.7,18.9-30.7,31.8-52.2,44.2c-2.7-5.1-5.7-9-9-12.3
			c12.3-6.4,32.5-18.1,55.6-46.2h-48.9V4661h54.4v-20.5h-42.3V4629h42.3v-23.2h14.3V4605.6z"/>
		<path d="M4411.1,4605.5v18.6h51v12.3h-51v31.9h14.4c5.1-11.2,5.5-12.4,12.8-30.1l12.9,5.7c-5.4,11.8-6.6,14.8-11.7,24.4h29.1v12.5
			h-50.4c13.3,15.1,28.5,29.4,56.5,40.2c-4.8,4.2-7.5,7.8-9.3,12.9c-21-10.2-38.4-23.4-54.3-42v49.6h-13.8v-50.8
			c-10.2,11.5-25.6,28-53.2,41.4c-2.5-4.5-5.8-8.5-9.5-11.4c18.6-8.5,36-19.9,53.4-39.9h-48.9v-12.5h58.2v-31.9h-51.6v-12.3h51.6
			v-18.6L4411.1,4605.5L4411.1,4605.5z M4369.3,4639.1c4.8,7.6,8.2,14.1,11.7,20.8l-11.7,6.5c-3-6.6-6.6-13.5-11.7-20.8
			L4369.3,4639.1z"/>
		<path d="M4536.9,4606.4v30.4h14.7v11.5h-14.7v21.4c4.2-1.5,9.3-3.4,14.2-5.4l0.3,10.6c-3.2,1.8-8.8,4.2-14.5,6.9v45.4
			c-1,9.5-3.1,12.5-22.8,14.1c-0.6-3.9-1.3-8.2-4.3-13h12.4c1.5-0.3,2.1-1.2,2.1-2.8V4687c-5.2,1.9-11.5,4.2-17.2,6l-3-12.7
			c6.9-2,14.2-4,20.2-6.5v-25.5h-18.1v-11.5h18.1v-30.4H4536.9z M4602.5,4606.4v23.8h35.5v12.6h-35.5v20.1h19.8l1.2-0.9l8.5,7.7
			c-5.2,9.7-10.8,20.2-27.9,38.1c7.5,7,18.1,16,37.6,21.4c-4.5,4.8-7.1,8.8-9.4,13.8c-20.4-9.8-29.5-16.9-39.1-25.6
			c-10.5,7.6-20.4,14.2-42,22.8c-1.8-3.6-4.2-7.8-7.4-12.1c15.7-5.8,27.6-11.5,40.6-20.8c-6-8.2-11.1-17.5-15.6-33.6h-9.3v-10.6
			h29.1V4643h-32.8v-12.6h32.8v-23.8h13.9V4606.4z M4582.5,4673.6c3.3,12.8,8.1,19.9,12.6,24.7c12.8-13,15.8-18,18.3-24.7H4582.5z"
			/>
		<path d="M4701.8,4740.8h-13.2v-61.5c-3.4,3.6-7.5,7.5-10,9.7c-3.3-5.8-5.4-9-8.2-12.4c7.1-6.6,19.5-18.1,31.9-38.4l10.6,10.2
			c-3.4,5.2-6.9,10.2-11.1,15.3L4701.8,4740.8L4701.8,4740.8z M4711.5,4615.7c-8.2,8.8-18,16.2-29.5,23.4c-3.1-3.6-6-6.6-9.9-10
			c9.8-6,18.1-12,29.7-23.5L4711.5,4615.7z M4730.7,4667.6c-2.5,24.6-4.5,37-10.6,56.7c-4.7-1.5-8.8-3-12.8-3.6
			c5.7-19.9,6.4-26.8,9.9-55L4730.7,4667.6z M4747.5,4607.7v27.7h12.3c-1.9-4-6-10.3-9.8-16l9-5.7c3.8,4,8.1,10.6,11.1,15.9l-9,5.8
			h7.7v12.8h-21.3v91.9h-12.8v-91.9h-19.3v-12.8h19.3v-27.7L4747.5,4607.7L4747.5,4607.7z M4764.8,4666.7
			c1.1,14.4,2.7,27.9,7.8,46.6c-3.6,0.6-8.6,1.5-12.5,2.6c-3.1-10.8-7.2-27.6-7.5-48L4764.8,4666.7z M4808.4,4652.6v13h-12.1v60.9
			c0,7.8-0.2,13.5-24.8,15.6c0.3-5.5-0.4-8.4-3.9-13.9h12.8c1.3,0,1.9-0.9,1.9-2.2v-60.3h-13.2v-13h39.3V4652.6z M4805.4,4612.4
			v12.6h-36.1v-12.6H4805.4z"/>
		<path d="M4974.6,4636.2v11.4H4944v17.4h24.9v11.4H4944v17.5h24.9v11.4H4944v17.4h31.3v11.7h-64.8v6.3H4898v-79.6
			c-1.8,3.5-3.4,6.4-5.4,9.1l-3.9-5.8v11.4c-5.2,2.4-9.9,4.2-14.5,6.1v43.9c0,11.7-3.6,13.6-24.4,16.3c-0.6-5.4-2-10-4.7-14.8h13.2
			c1.8,0,2.6-0.8,2.6-2.2V4687c-6.5,2.7-12.6,4.9-17.1,6.9l-4.1-13c6.5-1.8,14.1-4.3,21.2-7v-25h-19.2v-12.3h19.2v-30.1h13.3v30.1
			h14.8v12.3h-14.8v20.4c4.8-1.7,10-3.6,14.1-5.1l-4.6-4.5c13.3-21,19.2-34.6,24.3-54.1l13.8,4.6c-4.2,10.8-5.5,14.5-10.9,26.1h21.8
			c7-17.8,9-23.7,10.9-29.4l13.5,5c-3.4,6.9-8.2,17.7-11.2,24.4L4974.6,4636.2L4974.6,4636.2z M4910.6,4647.6v17.4h20.8v-17.4
			H4910.6z M4910.6,4676.4v17.5h20.8v-17.5H4910.6z M4910.6,4705.4v17.4h20.8v-17.4H4910.6z"/>
		<path d="M5042.4,4661v51.1c16.6,12.7,29.5,13.5,69.3,13.5c13.6,0,15.9,0,36.7-0.3c-2.6,4.2-4.2,8.8-5.4,13.3
			c-71.4,0-84,0-104.4-15.1c-14.8,12.4-16.7,13.9-22.2,19l-9.5-14.4c6.2-3.6,12.3-7.5,20.7-12.7V4674h-17.2v-13H5042.4z
			 M5024.4,4608.3c8.2,4.6,16.9,10.5,23.1,15.3l-9,11.4c-6.2-5.2-14.1-11-22-15.9L5024.4,4608.3z M5143,4628.7v10.9h-35.1v13.5h28
			v10.7h-28v13.5h28v10.6h-28v13.3h37.5v11.8H5073v5h-14.1v-65c-3.6,5.2-7.6,10.2-11.4,14.1c-1.7-4.2-3.6-8.2-7.3-12.1
			c11.2-13.3,19.3-23.5,31.5-51.4l12.9,6.1c-3.3,6.8-6.6,13.6-9.7,19h21.1c2.6-7.3,5.1-15.9,7.8-24.6l13.7,5.2
			c-3,6.6-6.2,13.6-9,19.3h34.5V4628.7z M5073,4639.7v13.5h21.6v-13.5H5073z M5073,4663.8v13.5h21.6v-13.5H5073z M5073,4688v13.3
			h21.6V4688H5073z"/>
		<path d="M5205,4606.7v30.1h12.1v12.3H5205v91.5h-12.9v-91.5h-13.8v-12.3h13.8v-30.1H5205z M5214.7,4693.1v-11.2h12.1
			c0.2-4.3,0.3-9.3,0.3-13.8h13.3c-0.2,5.1-0.6,9.5-0.8,13.8h19.8c-1.1,19.5-2.6,46.3-6.3,51.1c-3,3.6-8.2,6-17.7,6.9
			c-0.4-5.2-1.8-9.3-3.8-13h6.9c3.3,0,3.9-0.5,4.3-2.1c0.9-3.2,2.8-22.5,3.4-31.6h-8.1c-1.8,10.6-5.1,28.9-21.3,46.3
			c-3.1-4.2-6.3-7.2-9.6-10.2c10.3-10.3,14.1-18.4,17.6-36.1L5214.7,4693.1L5214.7,4693.1z M5224.8,4632.9V4622h25
			c0.8-3.6,1.2-9.8,1.3-15.1h15.6c-0.3,5.5-1.2,11.2-1.9,15.1h34.6c-0.2,4.3-1.5,28.6-4.1,33.7c-2.1,5-9,6-21.9,7.7
			c-0.4-3.5-1.3-7.8-3.3-13h8.8c3.8,0,4.4-0.9,4.8-4.6c0.3-2.2,0.6-5,1.2-12.8h-23.5c-8.5,18.3-18.9,25.5-41.5,34.3
			c-1-5.4-2.5-8.7-6.3-12.3c20.5-5.1,27.7-14.2,32.7-22h-21.5V4632.9z M5264.2,4693.1l-0.2-11.2h12.6c0.3-3.5,0.4-8.7,0.4-13.8h13.5
			c0,5-0.2,9.5-0.3,13.8h20.2c-0.5,12.1-1.1,21.4-1.5,28.2c-0.8,11.5-1.7,21-4.3,24.7c-2.6,3.2-7.1,4-18.3,5.9
			c-0.6-4.4-1.3-8.5-3.3-13.5h6.8c3,0,4-1,4.5-2.7c0.3-1.5,1.6-8.5,2.7-31.3h-8.1c-0.6,6-3.4,28-22.6,48.4c-3.2-4.6-6.8-7.9-9.3-10
			c13.7-11.8,17.2-29.4,18.6-38.4h-11.4V4693.1z"/>
		<path d="M5424.1,4608.8l-2.6,3c17.7,20.1,31.3,32.4,63.9,46.5c-3.8,3.3-7.7,7.5-9.8,12.6c-8.5-3.9-17.4-9.1-27.4-16v11.5h-72.6
			v-9.9c-7.8,5.9-15.7,11.2-23.7,15.1c-1.8-4-4.8-8.4-7.7-11.7c25.6-13.2,45.9-32.2,64.3-56.2L5424.1,4608.8z M5477.1,4681.2v12.2
			h-71.4l-15,30.6c17.1-1.2,34.2-3,50.4-5.2l-12.4-14.1l10.9-7.5c12.6,12.3,23.1,24.4,31.3,36.9l-12.6,8.8c-2.7-4.8-5.6-9.4-9-13.9
			c-28.5,4.8-38.2,6-77.5,10.8c-2.7,0.3-4.5,0.5-11.2,1.7l-4.7-15.1l19.8-1.1c4.4-10.5,8.9-21.9,12.9-31.8h-37v-12.2L5477.1,4681.2
			L5477.1,4681.2z M5446.8,4653.8c-14.4-11.2-20.8-17.4-34-33.4c-15.3,16.8-23.1,24.4-33.7,33.4H5446.8z"/>
	</g>
	<g class="st1">
		<path d="M4181.1,4771.8v-4.7h6v-2.1c0-3.1,0.8-5.5,2.4-7.1s3.9-2.4,6.9-2.4c1.9,0,3.7,0.2,5.4,0.7l-1.1,4.8
			c-1.1-0.5-2.2-0.7-3.4-0.7c-1.4,0-2.4,0.3-3,1s-0.8,1.9-0.8,3.6v2.1h7.8v4.7h-7.8v19.3h-6.4v-19.3h-6V4771.8z"/>
		<path d="M4245.4,4766.2v14.9c0,2.1,0.3,3.6,0.9,4.4s1.6,1.2,3,1.2s2.7-0.7,3.9-2.1c1.2-1.4,1.8-3.1,1.8-5v-13.3h6.2v25h-5.9
			l-0.1-3.5h-0.1c-1,1.2-2.1,2.2-3.6,2.9c-1.4,0.7-2.9,1.1-4.4,1.1c-2.7,0-4.7-0.8-6-2.3c-1.3-1.6-1.9-4.1-1.9-7.6v-15.5h6.2V4766.2
			z"/>
		<path d="M4310.9,4767.2h8.6v4.7h-8.6v10.2c0,1.9,0.2,3.2,0.7,3.8s1.3,1,2.6,1c1.5,0,3-0.3,4.3-0.8l0.8,4.7c-2,0.6-4.1,1-6.4,1
			c-2.9,0-5.1-0.7-6.4-2s-2-3.5-2-6.5V4772h-5.2v-4.7h5.2v-9.1h6.4V4767.2z"/>
		<path d="M4364.7,4766.2v14.9c0,2.1,0.3,3.6,0.9,4.4s1.6,1.2,3,1.2s2.7-0.7,3.9-2.1c1.2-1.4,1.8-3.1,1.8-5v-13.3h6.2v25h-5.9
			l-0.1-3.5h-0.1c-1,1.2-2.1,2.2-3.6,2.9c-1.4,0.7-2.9,1.1-4.4,1.1c-2.7,0-4.7-0.8-6-2.3c-1.3-1.6-1.9-4.1-1.9-7.6v-15.5h6.2V4766.2
			z"/>
		<path d="M4419.8,4766.2h6l0.1,4.8h0.1c2.8-3.5,6.7-5.3,11.5-5.3v5.1c-3.6,0-6.3,0.9-8.3,2.6s-3,4-3,6.9v10.9h-6.4L4419.8,4766.2
			L4419.8,4766.2z"/>
		<path d="M4479.4,4781c0.2,1.9,0.9,3.4,2.2,4.5c1.3,1.1,2.9,1.7,4.9,1.7c2.4,0,4.7-0.6,7.1-1.8l1.4,4.4c-2.9,1.3-5.9,1.9-9.1,1.9
			c-3.8,0-6.8-1.2-9.2-3.5c-2.4-2.3-3.5-5.5-3.5-9.5s1.1-7.2,3.3-9.5c2.2-2.3,5.1-3.5,8.8-3.5c3.7,0,6.6,1.1,8.7,3.3
			s3.1,5.4,3.1,9.5c0,0.8,0,1.6-0.1,2.4h-17.6V4781z M4479.4,4776.7h11.7c0-2.1-0.6-3.7-1.6-4.8c-1-1.1-2.4-1.7-4.2-1.7
			c-1.8,0-3.2,0.6-4.2,1.7C4480.1,4773.1,4479.5,4774.6,4479.4,4776.7z"/>
		<path d="M4592.6,4767.2h8.6v4.7h-8.6v10.2c0,1.9,0.2,3.2,0.7,3.8c0.5,0.7,1.3,1,2.6,1c1.5,0,3-0.3,4.3-0.8l0.8,4.7
			c-2,0.6-4.1,1-6.4,1c-2.9,0-5.1-0.7-6.4-2s-2-3.5-2-6.5V4772h-5.2v-4.7h5.2v-9.1h6.4V4767.2z"/>
		<path d="M4644.7,4781c0.2,1.9,0.9,3.4,2.2,4.5c1.3,1.1,2.9,1.7,4.9,1.7c2.4,0,4.7-0.6,7.1-1.8l1.4,4.4c-2.9,1.3-5.9,1.9-9.1,1.9
			c-3.8,0-6.8-1.2-9.2-3.5c-2.4-2.3-3.5-5.5-3.5-9.5s1.1-7.2,3.3-9.5c2.2-2.3,5.1-3.5,8.8-3.5c3.7,0,6.6,1.1,8.7,3.3
			c2.1,2.2,3.1,5.4,3.1,9.5c0,0.8,0,1.6-0.1,2.4h-17.6V4781z M4644.7,4776.7h11.7c0-2.1-0.6-3.7-1.6-4.8c-1-1.1-2.4-1.7-4.2-1.7
			c-1.8,0-3.2,0.6-4.2,1.7C4645.3,4773.1,4644.8,4774.6,4644.7,4776.7z"/>
		<path d="M4719,4785.2l1.4,4.7c-2.6,1.2-5.3,1.8-8.2,1.8c-4,0-7.2-1.2-9.6-3.5s-3.6-5.5-3.6-9.5c0-4.1,1.2-7.2,3.5-9.5
			c2.4-2.3,5.6-3.4,9.8-3.4c2.8,0,5.5,0.6,8.2,1.8l-1.4,4.8c-2-1.2-4.2-1.7-6.4-1.7s-4,0.7-5.3,2.1s-1.9,3.4-1.9,6s0.7,4.6,2,6
			s3.1,2.2,5.2,2.2C4714.9,4787,4717,4786.4,4719,4785.2z"/>
		<path d="M4759.5,4755.2h6.2v14.3h0.1c2.1-2.5,4.6-3.7,7.7-3.7c2.9,0,5,0.9,6.4,2.7c1.4,1.8,2,4.7,2,8.7v14.1h-6.1v-13.4
			c0-2.8-0.3-4.6-1-5.6c-0.6-1-1.8-1.5-3.5-1.5c-1.5,0-2.8,0.7-3.9,2.2s-1.7,3.1-1.7,5v13.3h-6.2V4755.2z"/>
		<path d="M4878.4,4765.8c3.8,0,6.5,0.7,8.2,2.2s2.5,3.9,2.5,7.2v9.3c0,2.3,0.2,4.5,0.7,6.7h-5.9c-0.2-1.1-0.3-2.3-0.4-3.7h-0.1
			c-0.9,1.3-2.1,2.3-3.6,3.1s-3.2,1.1-5,1.1c-2.3,0-4.2-0.6-5.6-1.9s-2.1-3.1-2.1-5.4c0-2.8,1.2-5,3.5-6.7c2.4-1.7,5.7-2.5,10.2-2.5
			h2.1v-0.1c0-1.7-0.3-2.9-1-3.6s-1.9-1-3.6-1c-3.1,0-6.1,0.7-8.9,2.2l-0.9-4.7C4871.5,4766.5,4874.9,4765.8,4878.4,4765.8z
			 M4873,4783.8c0,1,0.3,1.8,0.9,2.4s1.4,0.9,2.5,0.9c1.8,0,3.4-0.6,4.6-1.8c1.2-1.2,1.9-2.7,1.9-4.5v-1.6h-2.1
			c-2.5,0-4.5,0.4-5.8,1.3C4873.7,4781.4,4873,4782.5,4873,4783.8z"/>
		<path d="M4945.8,4772.3c-2.7-1.2-5.3-1.8-7.8-1.8c-2.9,0-4.4,0.9-4.4,2.6c0,0.8,0.3,1.5,1,1.9s1.8,0.8,3.4,1
			c3.6,0.5,6.1,1.4,7.6,2.8c1.5,1.3,2.3,3.2,2.3,5.5s-0.9,4.1-2.7,5.4s-4.3,2-7.5,2c-3.9,0-7.3-0.8-10.3-2.4l1.2-4.7
			c2.7,1.6,5.6,2.4,8.8,2.4c2.8,0,4.2-0.9,4.2-2.8c0-0.9-0.3-1.5-0.9-1.9s-1.7-0.8-3.4-1.1c-3.5-0.6-6-1.5-7.6-2.8
			c-1.5-1.3-2.3-3.1-2.3-5.3c0-2.2,0.9-4,2.6-5.3s4.3-1.9,7.6-1.9s6.4,0.6,9.4,1.8L4945.8,4772.3z"/>
		<path d="M5003.2,4772.3c-2.7-1.2-5.3-1.8-7.8-1.8c-2.9,0-4.4,0.9-4.4,2.6c0,0.8,0.3,1.5,1,1.9c0.6,0.4,1.8,0.8,3.4,1
			c3.6,0.5,6.1,1.4,7.6,2.8c1.5,1.3,2.3,3.2,2.3,5.5s-0.9,4.1-2.7,5.4c-1.8,1.3-4.3,2-7.5,2c-3.9,0-7.3-0.8-10.3-2.4l1.2-4.7
			c2.7,1.6,5.6,2.4,8.8,2.4c2.8,0,4.2-0.9,4.2-2.8c0-0.9-0.3-1.5-0.9-1.9s-1.7-0.8-3.4-1.1c-3.5-0.6-6-1.5-7.6-2.8
			c-1.5-1.3-2.3-3.1-2.3-5.3c0-2.2,0.9-4,2.6-5.3s4.3-1.9,7.6-1.9s6.4,0.6,9.4,1.8L5003.2,4772.3z"/>
		<path d="M5045.3,4769.3c2.2-2.3,5.2-3.5,9-3.5s6.8,1.2,9.1,3.5c2.2,2.3,3.4,5.5,3.4,9.5s-1.1,7.1-3.4,9.5
			c-2.2,2.3-5.3,3.5-9.1,3.5s-6.8-1.2-9-3.5s-3.3-5.5-3.3-9.5C5041.9,4774.7,5043,4771.6,5045.3,4769.3z M5054.3,4786.9
			c2,0,3.5-0.7,4.6-2.1s1.6-3.4,1.6-6.1s-0.5-4.7-1.6-6.1s-2.6-2.1-4.6-2.1c-1.9,0-3.4,0.7-4.5,2.1s-1.6,3.4-1.6,6.1
			s0.5,4.7,1.6,6.1C5050.9,4786.2,5052.4,4786.9,5054.3,4786.9z"/>
		<path d="M5123.2,4785.2l1.4,4.7c-2.6,1.2-5.3,1.8-8.2,1.8c-4,0-7.2-1.2-9.6-3.5s-3.6-5.5-3.6-9.5c0-4.1,1.2-7.2,3.5-9.5
			c2.4-2.3,5.6-3.4,9.8-3.4c2.8,0,5.5,0.6,8.2,1.8l-1.4,4.8c-2-1.2-4.2-1.7-6.4-1.7s-4,0.7-5.3,2.1s-1.9,3.4-1.9,6s0.7,4.6,2,6
			s3.1,2.2,5.2,2.2C5119.1,4787,5121.2,4786.4,5123.2,4785.2z"/>
		<path d="M5164.9,4761v-5.8h6.6v5.8H5164.9z M5164.9,4791.2v-25h6.6v25H5164.9z"/>
		<path d="M5222.4,4765.8c3.8,0,6.5,0.7,8.2,2.2s2.5,3.9,2.5,7.2v9.3c0,2.3,0.2,4.5,0.7,6.7h-5.9c-0.2-1.1-0.3-2.3-0.4-3.7h-0.1
			c-0.9,1.3-2.1,2.3-3.6,3.1s-3.2,1.1-5,1.1c-2.3,0-4.2-0.6-5.6-1.9s-2.1-3.1-2.1-5.4c0-2.8,1.2-5,3.5-6.7c2.4-1.7,5.7-2.5,10.2-2.5
			h2.1v-0.1c0-1.7-0.3-2.9-1-3.6s-1.9-1-3.6-1c-3.1,0-6.1,0.7-8.9,2.2l-0.9-4.7C5215.5,4766.5,5218.8,4765.8,5222.4,4765.8z
			 M5217,4783.8c0,1,0.3,1.8,0.9,2.4s1.4,0.9,2.5,0.9c1.8,0,3.4-0.6,4.6-1.8c1.2-1.2,1.9-2.7,1.9-4.5v-1.6h-2.1
			c-2.5,0-4.5,0.4-5.8,1.3C5217.6,4781.4,5217,4782.5,5217,4783.8z"/>
		<path d="M5281.6,4767.2h8.6v4.7h-8.6v10.2c0,1.9,0.2,3.2,0.7,3.8s1.3,1,2.6,1c1.5,0,3-0.3,4.3-0.8l0.8,4.7c-2,0.6-4.1,1-6.4,1
			c-2.9,0-5.1-0.7-6.4-2s-2-3.5-2-6.5V4772h-5.2v-4.7h5.2v-9.1h6.4V4767.2z"/>
		<path d="M5331,4761v-5.8h6.6v5.8H5331z M5331,4791.2v-25h6.6v25H5331z"/>
		<path d="M5380.1,4769.3c2.2-2.3,5.2-3.5,9-3.5s6.8,1.2,9.1,3.5c2.2,2.3,3.4,5.5,3.4,9.5s-1.1,7.1-3.4,9.5
			c-2.2,2.3-5.3,3.5-9.1,3.5s-6.8-1.2-9-3.5s-3.3-5.5-3.3-9.5C5376.8,4774.7,5377.9,4771.6,5380.1,4769.3z M5389.1,4786.9
			c2,0,3.5-0.7,4.6-2.1s1.6-3.4,1.6-6.1s-0.5-4.7-1.6-6.1s-2.6-2.1-4.6-2.1c-1.9,0-3.4,0.7-4.5,2.1s-1.6,3.4-1.6,6.1
			s0.5,4.7,1.6,6.1C5385.7,4786.2,5387.2,4786.9,5389.1,4786.9z"/>
		<path d="M5439.2,4766.2h5.9l0.1,3.5h0.1c1-1.2,2.2-2.2,3.6-2.9s2.9-1.1,4.4-1.1c2.9,0,5,0.9,6.4,2.7c1.4,1.8,2,4.7,2,8.7v14.1
			h-6.1v-13.4c0-2.8-0.3-4.6-1-5.6c-0.6-1-1.8-1.5-3.5-1.5c-1.4,0-2.7,0.7-3.9,2.2c-1.2,1.4-1.8,3.1-1.8,5v13.3h-6.2V4766.2z"/>
	</g>
	<rect x="3972.2" y="4297.8" class="st6" width="22" height="53"/>
	<polygon class="st7" points="5641.5,3709.1 5359.6,3220.8 5641.5,2732.6 6205.3,2732.6 6487.2,3220.8 6205.3,3709.1 	"/>
	<circle class="st8" cx="5923.4" cy="3980.8" r="391.4"/>
	<circle class="st8" cx="5923.4" cy="2461" r="391.4"/>
	<circle class="st8" cx="6581.5" cy="2841" r="391.4"/>
	<circle class="st8" cx="6581.5" cy="3600.7" r="391.4"/>
	<circle class="st8" cx="5265.3" cy="2841" r="391.4"/>
	<circle class="st8" cx="5265.3" cy="3600.7" r="391.4"/>
	<line class="st7" x1="5923.4" y1="2679.8" x2="5923.4" y2="4496.8"/>
	<ellipse class="st9" cx="5923.3" cy="3220.9" rx="759.9" ry="759.9"/>
</g>
<g>
	<g>
		<path d="M181.8,155.8H195v3.9h-8.3v4.8h7.7v3.7h-7.7v8.6h-4.9V155.8z"/>
		<path d="M198.1,161.9h4.5v8.7c0,1.1,0.2,1.9,0.5,2.3c0.3,0.4,0.8,0.6,1.6,0.6c0.7,0,1.3-0.3,1.8-0.8c0.6-0.5,0.8-1.1,0.8-1.8v-9
			h4.7v15h-4.4l-0.1-1.9h-0.1c-1.2,1.5-2.8,2.2-4.5,2.2s-2.9-0.5-3.7-1.4s-1.1-2.6-1.1-4.8V161.9z"/>
		<path d="M222.9,162.5h4.7v3.3h-4.7v5.2c0,1.2,0.1,2,0.3,2.3s0.7,0.5,1.5,0.5c0.9,0,1.7-0.1,2.5-0.4v3.5c-1.1,0.2-2.3,0.4-3.7,0.4
			c-2,0-3.3-0.4-4.1-1.3c-0.8-0.8-1.2-2.3-1.2-4.5v-5.7h-3v-3.3h3V157h4.7V162.5z"/>
		<path d="M231.4,161.9h4.5v8.7c0,1.1,0.2,1.9,0.5,2.3c0.3,0.4,0.8,0.6,1.6,0.6c0.7,0,1.3-0.3,1.8-0.8c0.6-0.5,0.8-1.1,0.8-1.8v-9
			h4.7v15h-4.4l-0.1-1.9h-0.1c-1.2,1.5-2.8,2.2-4.5,2.2s-2.9-0.5-3.7-1.4s-1.1-2.6-1.1-4.8V161.9z"/>
		<path d="M249.7,161.9h4.7v2.9h0.1c0.7-0.9,1.5-1.6,2.6-2.1s2.2-0.8,3.5-0.8h0.6v3.5h-0.6c-1.9,0-3.3,0.5-4.4,1.4
			c-1,0.9-1.6,2.2-1.6,3.8v6.3h-4.8v-15H249.7z"/>
		<path d="M268.2,170.7c0.1,1.2,0.5,2,1.2,2.5s1.7,0.7,3,0.7c1.1,0,2.5-0.3,4.4-0.8v3.3c-1.8,0.5-3.4,0.7-5,0.7c-2.6,0-4.6-0.7-6-2
			s-2.1-3.3-2.1-5.8s0.6-4.4,1.9-5.8c1.3-1.3,3.1-2,5.5-2c4.7,0,7,2.6,7,7.7c0,0.4,0,0.9-0.1,1.4h-9.8V170.7z M268.2,168h5.4
			c0-2.2-0.9-3.2-2.5-3.2c-0.9,0-1.6,0.2-2,0.7C268.6,166,268.3,166.8,268.2,168z"/>
		<path d="M307.7,155.8v4.1h-5.6v17h-5v-17h-5.6v-4.1H307.7z"/>
		<path d="M312.4,170.7c0.1,1.2,0.5,2,1.2,2.5s1.7,0.7,3,0.7c1.1,0,2.5-0.3,4.4-0.8v3.3c-1.8,0.5-3.4,0.7-5,0.7c-2.6,0-4.6-0.7-6-2
			s-2.1-3.3-2.1-5.8s0.6-4.4,1.9-5.8c1.3-1.3,3.1-2,5.5-2c4.7,0,7,2.6,7,7.7c0,0.4,0,0.9-0.1,1.4h-9.8V170.7z M312.4,168h5.4
			c0-2.2-0.9-3.2-2.5-3.2c-0.9,0-1.6,0.2-2,0.7C312.8,166,312.5,166.8,312.4,168z"/>
		<path d="M324.9,169.4c0-2.5,0.6-4.4,1.9-5.8c1.3-1.3,3.1-2,5.5-2c1.6,0,3.2,0.2,4.8,0.5v3.6c-1.4-0.4-2.7-0.6-4-0.6
			c-1.1,0-1.9,0.3-2.5,1c-0.5,0.7-0.8,1.8-0.8,3.3s0.3,2.6,0.9,3.3s1.5,1,2.7,1c1.3,0,2.6-0.2,3.9-0.6v3.5c-1.6,0.4-3.1,0.6-4.7,0.6
			c-2.5,0-4.4-0.7-5.7-2C325.6,173.9,324.9,172,324.9,169.4z"/>
		<path d="M346.1,155.3v8.2h0.1c1.4-1.2,2.8-1.9,4.4-1.9c1.8,0,3,0.5,3.8,1.5s1.2,2.8,1.2,5.4v8.4H351v-7.8c0-1.5-0.1-2.6-0.4-3.1
			s-0.9-0.7-1.7-0.7c-0.7,0-1.3,0.3-1.8,0.9c-0.6,0.6-0.9,1.2-0.9,1.8v8.9h-4.7v-21.6L346.1,155.3L346.1,155.3z"/>
		<path d="M359.7,161.9h4.4l0.1,1.9h0.1c1.2-1.5,2.8-2.2,4.5-2.2s3,0.5,3.8,1.5s1.2,2.7,1.2,5v8.7h-4.6v-8.6c0-1.2-0.2-1.9-0.5-2.4
			c-0.3-0.4-0.9-0.6-1.7-0.6c-0.7,0-1.3,0.3-1.8,0.8c-0.6,0.5-0.8,1.1-0.8,1.8v9h-4.7V161.9z"/>
		<path d="M379.1,163.6c1.3-1.4,3.2-2,5.6-2s4.2,0.7,5.5,2c1.3,1.4,2,3.3,2,5.7c0,2.5-0.7,4.4-2,5.7c-1.3,1.4-3.2,2-5.5,2
			c-2.4,0-4.2-0.7-5.6-2c-1.3-1.4-2-3.3-2-5.7C377.1,166.9,377.8,165,379.1,163.6z M382.5,172.8c0.5,0.7,1.2,1.1,2.1,1.1
			c1,0,1.7-0.4,2.1-1.1c0.5-0.7,0.7-1.9,0.7-3.5s-0.2-2.7-0.7-3.5c-0.5-0.7-1.2-1.1-2.1-1.1c-1,0-1.7,0.4-2.1,1.1
			c-0.5,0.7-0.7,1.9-0.7,3.5C381.8,171,382,172.1,382.5,172.8z"/>
		<path d="M396.1,176.9v-21.6h4.9v21.6H396.1z"/>
		<path d="M406.8,163.6c1.3-1.4,3.2-2,5.6-2s4.2,0.7,5.5,2c1.3,1.4,2,3.3,2,5.7c0,2.5-0.7,4.4-2,5.7c-1.3,1.4-3.2,2-5.5,2
			c-2.4,0-4.2-0.7-5.6-2c-1.3-1.4-2-3.3-2-5.7C404.8,166.9,405.5,165,406.8,163.6z M410.2,172.8c0.5,0.7,1.2,1.1,2.1,1.1
			c1,0,1.7-0.4,2.1-1.1c0.5-0.7,0.7-1.9,0.7-3.5s-0.2-2.7-0.7-3.5c-0.5-0.7-1.2-1.1-2.1-1.1c-1,0-1.7,0.4-2.1,1.1
			c-0.5,0.7-0.7,1.9-0.7,3.5C409.5,171,409.8,172.1,410.2,172.8z"/>
		<path d="M437,178c0,1.7-0.7,3.1-2.1,4c-1.4,1-3.4,1.5-6.1,1.5c-2.1,0-4.1-0.4-6.1-1.2v-3.5c1.9,1,4,1.4,6.1,1.4
			c1.1,0,2-0.2,2.6-0.5c0.6-0.4,0.9-0.8,0.9-1.4c0-1-1.1-1.5-3.3-1.5c-2.2,0-3.8-0.2-4.7-0.7c-0.9-0.5-1.3-1.3-1.3-2.3
			c0-0.7,0.4-1.6,1.2-2.7c-1.2-1-1.8-2.3-1.8-3.9c0-1.7,0.5-3,1.6-4c1-1,2.4-1.5,4-1.5c1.9,0,3.4,0.7,4.5,2h0.1l0.1-1.7h4.2v5.4
			c0,1.8-0.6,3.2-1.7,4c-1.2,0.9-3,1.3-5.5,1.3c-0.9,0-1.7-0.1-2.4-0.2c-0.2,0.3-0.3,0.5-0.3,0.7c0,0.3,0.2,0.5,0.5,0.6
			c0.4,0.1,1.1,0.2,2.2,0.2c2.6,0,4.4,0.3,5.5,1C436.4,175.6,437,176.6,437,178z M427,167.4c0,2,0.8,2.9,2.5,2.9
			c0.7,0,1.3-0.3,1.8-0.8s0.7-1.2,0.7-2.2c0-0.9-0.2-1.7-0.7-2.2s-1.1-0.8-1.8-0.8c-0.8,0-1.4,0.3-1.8,0.8
			C427.2,165.7,427,166.4,427,167.4z"/>
		<path d="M440.4,183.5V180c1.5,0,2.6-0.2,3.3-0.6c0.7-0.4,1.2-1.3,1.6-2.5l-5.8-15h5.1l2.8,10.6h0.1l3.1-10.6h4.9l-5.6,15.2
			c-0.9,2.4-2,4-3.4,5C445,183,443,183.5,440.4,183.5z"/>
		<path d="M467.9,176.9l6.8-21h5.2l6.8,21h-5.2l-1.2-4.6H474l-1.1,4.6H467.9z M475.1,168.6h4.4l-2.1-8.5h-0.1L475.1,168.6z"/>
		<path d="M501.3,165.6c-1.7-0.5-3.3-0.8-5-0.8c-1.4,0-2.2,0.4-2.2,1.2c0,0.7,0.6,1.2,1.7,1.4c2.2,0.4,3.7,0.9,4.6,1.7
			s1.3,1.9,1.3,3.4c0,1.4-0.5,2.6-1.6,3.4c-1.1,0.8-2.6,1.2-4.7,1.2s-4.1-0.3-5.9-0.9v-3.5c1.7,0.7,3.4,1,5.3,1
			c1.4,0,2.1-0.4,2.1-1.2c0-0.4-0.1-0.7-0.4-0.9c-0.2-0.2-0.7-0.4-1.4-0.5c-2.1-0.4-3.6-1-4.5-1.8s-1.4-1.9-1.4-3.2
			c0-1.4,0.5-2.5,1.6-3.3s2.7-1.2,4.8-1.2c1.8,0,3.6,0.2,5.5,0.6v3.4H501.3z"/>
		<path d="M517,165.6c-1.7-0.5-3.3-0.8-5-0.8c-1.4,0-2.2,0.4-2.2,1.2c0,0.7,0.6,1.2,1.7,1.4c2.2,0.4,3.7,0.9,4.6,1.7
			c0.9,0.8,1.3,1.9,1.3,3.4c0,1.4-0.5,2.6-1.6,3.4c-1.1,0.8-2.6,1.2-4.7,1.2c-2.1,0-4.1-0.3-5.9-0.9v-3.5c1.7,0.7,3.4,1,5.3,1
			c1.4,0,2.1-0.4,2.1-1.2c0-0.4-0.1-0.7-0.4-0.9c-0.2-0.2-0.7-0.4-1.4-0.5c-2.1-0.4-3.6-1-4.5-1.8s-1.4-1.9-1.4-3.2
			c0-1.4,0.5-2.5,1.6-3.3s2.7-1.2,4.8-1.2c1.8,0,3.6,0.2,5.5,0.6v3.4H517z"/>
		<path d="M522.3,163.6c1.3-1.4,3.2-2,5.6-2c2.4,0,4.2,0.7,5.5,2c1.3,1.4,2,3.3,2,5.7c0,2.5-0.7,4.4-2,5.7c-1.3,1.4-3.2,2-5.5,2
			c-2.4,0-4.2-0.7-5.6-2c-1.3-1.4-2-3.3-2-5.7C520.3,166.9,521,165,522.3,163.6z M525.7,172.8c0.5,0.7,1.2,1.1,2.1,1.1
			c1,0,1.7-0.4,2.1-1.1c0.5-0.7,0.7-1.9,0.7-3.5s-0.2-2.7-0.7-3.5c-0.5-0.7-1.2-1.1-2.1-1.1c-1,0-1.7,0.4-2.1,1.1
			c-0.5,0.7-0.7,1.9-0.7,3.5C525,171,525.2,172.1,525.7,172.8z"/>
		<path d="M538.1,169.4c0-2.5,0.6-4.4,1.9-5.8c1.3-1.3,3.1-2,5.5-2c1.6,0,3.2,0.2,4.8,0.5v3.6c-1.4-0.4-2.7-0.6-4-0.6
			c-1.1,0-1.9,0.3-2.5,1c-0.5,0.7-0.8,1.8-0.8,3.3s0.3,2.6,0.9,3.3c0.6,0.7,1.5,1,2.7,1c1.3,0,2.6-0.2,3.9-0.6v3.5
			c-1.6,0.4-3.1,0.6-4.7,0.6c-2.5,0-4.4-0.7-5.7-2C538.8,173.9,538.1,172,538.1,169.4z"/>
		<path d="M554.9,159v-3.7h4.9v3.7H554.9z M554.9,176.9v-15h4.9v15H554.9z"/>
		<path d="M570.6,161.6c2.5,0,4.3,0.5,5.3,1.4s1.6,2.4,1.6,4.5v9.4h-4.4l-0.1-2h-0.1c-1.2,1.5-2.8,2.3-4.7,2.3
			c-1.3,0-2.4-0.4-3.3-1.3c-0.9-0.9-1.3-2-1.3-3.3c0-3.5,2.6-5.2,7.8-5.2h1.3V167c0-0.7-0.2-1.3-0.6-1.6c-0.4-0.3-1-0.5-1.9-0.5
			c-1.6,0-3.6,0.3-5.8,1v-3.3C566.7,161.9,568.7,161.6,570.6,161.6z M572.9,170h-1.3c-2.3,0-3.5,0.7-3.5,2.2c0,0.5,0.2,0.9,0.5,1.2
			s0.7,0.4,1.2,0.4c0.9,0,1.7-0.3,2.2-0.9c0.6-0.6,0.9-1.4,0.9-2.3L572.9,170L572.9,170z"/>
		<path d="M588.4,162.5h4.7v3.3h-4.7v5.2c0,1.2,0.1,2,0.3,2.3s0.7,0.5,1.5,0.5c0.9,0,1.7-0.1,2.5-0.4v3.5c-1.1,0.2-2.3,0.4-3.7,0.4
			c-2,0-3.3-0.4-4.1-1.3c-0.8-0.8-1.2-2.3-1.2-4.5v-5.7h-3v-3.3h3V157h4.7V162.5z"/>
		<path d="M597.5,159v-3.7h4.9v3.7H597.5z M597.5,176.9v-15h4.9v15H597.5z"/>
		<path d="M608.3,163.6c1.3-1.4,3.2-2,5.6-2c2.4,0,4.2,0.7,5.5,2c1.3,1.4,2,3.3,2,5.7c0,2.5-0.7,4.4-2,5.7c-1.3,1.4-3.2,2-5.5,2
			c-2.4,0-4.2-0.7-5.6-2c-1.3-1.4-2-3.3-2-5.7C606.3,166.9,607,165,608.3,163.6z M611.7,172.8c0.5,0.7,1.2,1.1,2.1,1.1
			c1,0,1.7-0.4,2.1-1.1c0.5-0.7,0.7-1.9,0.7-3.5s-0.2-2.7-0.7-3.5c-0.5-0.7-1.2-1.1-2.1-1.1c-1,0-1.7,0.4-2.1,1.1
			c-0.5,0.7-0.7,1.9-0.7,3.5C611,171,611.2,172.1,611.7,172.8z"/>
		<path d="M624.9,161.9h4.4l0.1,1.9h0.1c1.2-1.5,2.8-2.2,4.5-2.2s3,0.5,3.8,1.5s1.2,2.7,1.2,5v8.7h-4.6v-8.6c0-1.2-0.2-1.9-0.5-2.4
			c-0.3-0.4-0.9-0.6-1.7-0.6c-0.7,0-1.3,0.3-1.8,0.8c-0.6,0.5-0.8,1.1-0.8,1.8v9h-4.7V161.9z"/>
		<path d="M653.1,165.7v-3.3h3.2v-0.8c0-2.1,0.5-3.7,1.4-4.7c1-1,2.5-1.5,4.6-1.5c1.2,0,2.3,0.1,3.4,0.4v3.4
			c-0.8-0.3-1.6-0.4-2.3-0.4c-0.9,0-1.6,0.2-1.9,0.5c-0.3,0.4-0.5,1.1-0.5,2.2v0.8h4.3v3.3H661v11.2h-4.8v-11.2h-3.1V165.7z"/>
		<path d="M670.3,163.6c1.3-1.4,3.2-2,5.6-2c2.4,0,4.2,0.7,5.5,2c1.3,1.4,2,3.3,2,5.7c0,2.5-0.7,4.4-2,5.7c-1.3,1.4-3.2,2-5.5,2
			c-2.4,0-4.2-0.7-5.6-2c-1.3-1.4-2-3.3-2-5.7C668.3,166.9,669,165,670.3,163.6z M673.7,172.8c0.5,0.7,1.2,1.1,2.1,1.1
			c1,0,1.7-0.4,2.1-1.1c0.5-0.7,0.7-1.9,0.7-3.5s-0.2-2.7-0.7-3.5c-0.5-0.7-1.2-1.1-2.1-1.1c-1,0-1.7,0.4-2.1,1.1
			c-0.5,0.7-0.7,1.9-0.7,3.5C673,171,673.3,172.1,673.7,172.8z"/>
		<path d="M686.9,161.9h4.7v2.9h0.1c0.7-0.9,1.5-1.6,2.6-2.1s2.2-0.8,3.5-0.8h0.6v3.5h-0.6c-1.9,0-3.3,0.5-4.4,1.4
			c-1,0.9-1.6,2.2-1.6,3.8v6.3H687L686.9,161.9L686.9,161.9z"/>
		<path d="M717.7,169.8v7.1h-4.8v-21h5.8c3.4,0,5.9,0.5,7.5,1.6s2.3,2.7,2.3,4.9c0,4.9-2.8,7.4-8.4,7.4H717.7z M717.7,166.2h1.8
			c1.4,0,2.5-0.3,3.2-0.9c0.7-0.6,1.1-1.5,1.1-2.6s-0.3-1.9-1-2.4s-1.8-0.8-3.3-0.8h-1.8V166.2z"/>
		<path d="M731.5,161.9h4.7v2.9h0.1c0.7-0.9,1.5-1.6,2.6-2.1s2.2-0.8,3.5-0.8h0.6v3.5h-0.6c-1.9,0-3.3,0.5-4.4,1.4
			c-1,0.9-1.6,2.2-1.6,3.8v6.3h-4.8L731.5,161.9L731.5,161.9z"/>
		<path d="M747.4,163.6c1.3-1.4,3.2-2,5.6-2c2.4,0,4.2,0.7,5.5,2c1.3,1.4,2,3.3,2,5.7c0,2.5-0.7,4.4-2,5.7c-1.3,1.4-3.2,2-5.5,2
			c-2.4,0-4.2-0.7-5.6-2c-1.3-1.4-2-3.3-2-5.7C745.4,166.9,746.1,165,747.4,163.6z M750.8,172.8c0.5,0.7,1.2,1.1,2.1,1.1
			c1,0,1.7-0.4,2.1-1.1c0.5-0.7,0.7-1.9,0.7-3.5s-0.2-2.7-0.7-3.5c-0.5-0.7-1.2-1.1-2.1-1.1c-1,0-1.7,0.4-2.1,1.1
			c-0.5,0.7-0.7,1.9-0.7,3.5C750.1,171,750.3,172.1,750.8,172.8z"/>
		<path d="M764,161.9h4.3l0.1,1.9h0.1c1.1-1.5,2.5-2.2,3.9-2.2c0.9,0,1.6,0.2,2.1,0.5s1,0.9,1.5,1.7h0.1c1.3-1.5,2.7-2.2,4.2-2.2
			c1.6,0,2.8,0.4,3.5,1.3c0.7,0.9,1.1,2.4,1.1,4.5v9.5h-4.5v-9.2c0-1-0.1-1.7-0.3-2.1c-0.2-0.3-0.7-0.5-1.3-0.5
			c-0.4,0-0.9,0.2-1.3,0.5c-0.4,0.4-0.6,0.7-0.6,1.1v10.2h-4.5v-9.2c0-1-0.1-1.7-0.3-2.1c-0.2-0.3-0.7-0.5-1.3-0.5
			c-0.4,0-0.9,0.2-1.3,0.5c-0.4,0.4-0.6,0.7-0.6,1.1v10.2H764V161.9z"/>
		<path d="M790.3,163.6c1.3-1.4,3.2-2,5.6-2c2.4,0,4.2,0.7,5.5,2c1.3,1.4,2,3.3,2,5.7c0,2.5-0.7,4.4-2,5.7c-1.3,1.4-3.2,2-5.5,2
			c-2.4,0-4.2-0.7-5.6-2c-1.3-1.4-2-3.3-2-5.7C788.3,166.9,789,165,790.3,163.6z M793.7,172.8c0.5,0.7,1.2,1.1,2.1,1.1
			c1,0,1.7-0.4,2.1-1.1c0.5-0.7,0.7-1.9,0.7-3.5s-0.2-2.7-0.7-3.5c-0.5-0.7-1.2-1.1-2.1-1.1c-1,0-1.7,0.4-2.1,1.1
			c-0.5,0.7-0.7,1.9-0.7,3.5C793,171,793.2,172.1,793.7,172.8z"/>
		<path d="M813.6,162.5h4.7v3.3h-4.7v5.2c0,1.2,0.1,2,0.3,2.3s0.7,0.5,1.5,0.5c0.9,0,1.7-0.1,2.5-0.4v3.5c-1.1,0.2-2.3,0.4-3.7,0.4
			c-2,0-3.3-0.4-4.1-1.3c-0.8-0.8-1.2-2.3-1.2-4.5v-5.7h-3v-3.3h3V157h4.7V162.5z"/>
		<path d="M822.7,159v-3.7h4.9v3.7H822.7z M822.7,176.9v-15h4.9v15H822.7z"/>
		<path d="M833.5,163.6c1.3-1.4,3.2-2,5.6-2c2.4,0,4.2,0.7,5.5,2c1.3,1.4,2,3.3,2,5.7c0,2.5-0.7,4.4-2,5.7c-1.3,1.4-3.2,2-5.5,2
			c-2.4,0-4.2-0.7-5.6-2c-1.3-1.4-2-3.3-2-5.7C831.5,166.9,832.2,165,833.5,163.6z M836.9,172.8c0.5,0.7,1.2,1.1,2.1,1.1
			c1,0,1.7-0.4,2.1-1.1c0.5-0.7,0.7-1.9,0.7-3.5s-0.2-2.7-0.7-3.5c-0.5-0.7-1.2-1.1-2.1-1.1c-1,0-1.7,0.4-2.1,1.1
			c-0.5,0.7-0.7,1.9-0.7,3.5C836.2,171,836.4,172.1,836.9,172.8z"/>
		<path d="M850.1,161.9h4.4l0.1,1.9h0.1c1.2-1.5,2.8-2.2,4.5-2.2s3,0.5,3.8,1.5s1.2,2.7,1.2,5v8.7h-4.6v-8.6c0-1.2-0.2-1.9-0.5-2.4
			c-0.3-0.4-0.9-0.6-1.7-0.6c-0.7,0-1.3,0.3-1.8,0.8c-0.6,0.5-0.8,1.1-0.8,1.8v9h-4.7V161.9z"/>
	</g>
	<g>
		<path d="M220.4,73.5v12h24v8.9h-24v9.2h30.2v8.9h-25.2c10.3,13.4,22.2,20.8,29.7,24.4c-2.8,2.7-5.3,5.4-6.9,8.5
			c-8.9-5.3-17.8-11.3-27.8-24v27.3h-10.2v-27c-9.3,10.1-15.5,16.1-27.9,22.8c-1.5-3.5-3.4-6.9-5.7-9.5
			c10.9-4.4,22.2-14.5,28.8-22.6h-24.5v-8.9h29.3v-9.2h-22.5v-8.9h22.5v-12L220.4,73.5L220.4,73.5z"/>
		<path d="M322.5,91.3l8.3,3.6c-0.8,1.8-4.5,8.9-6.2,12.2h15v8.9h-25.7c9.4,11,21.1,17.2,29.7,20.4c-2.8,2.8-4.8,5.6-6.4,8.9
			c-9.6-4.3-19.6-10.9-28.9-21.6v25.7h-9.8v-25.7c-4.8,5-12.8,13.4-28.5,20.6c-1.8-3.1-3.9-6-6.4-8.5c15.5-6.4,23.7-14.5,28.9-19.7
			h-25.3v-8.9H283c-2.3-4.2-4.2-7.7-6.6-11.4l7.9-4.3c2.8,4.5,5.3,8.2,6.9,12l-6.4,3.8h13.7v-16h-27.8v-8.7h27.8v-9.3h9.8v9.3H336
			v8.7H322.5z M314.5,107.1c1-2,5.9-13.6,6.9-15.8h-13v15.8H314.5z"/>
		<path d="M372,73.6v15.3h7.2V98H372v9.7c2.3-0.8,4.8-1.5,7.2-2.4l0.1,8.3c-2,0.8-4.5,1.8-7.3,3.1v23.9c-0.3,6.1-3,7.9-14.4,8.6
			c-0.5-2.6-1.3-6.2-3-9h7.2c0.8-0.2,1.2-0.7,1.2-1.6V120c-2.6,0.9-5.7,1.9-8.5,2.8l-2.1-9.4c3.8-0.9,7.5-2,10.6-3.1V98h-9.2v-9.1
			h9.2V73.6H372z M408.8,73.8V86h18.7v9h-18.7v9.3h9.5l0.7-0.6l6.2,5.9c-3.3,6-6.1,11.1-15,20.4c4.6,3.8,10.4,7.7,20.1,10.6
			c-2.6,2.9-4.4,5.9-5.7,9.3c-8.7-3.7-15.7-7.4-22-13.5c-5.9,4.3-12,7.9-23.6,12.3c-0.9-3.1-2.6-6.4-4.7-9.2c8.9-2.9,15.5-6,21.6-10
			c-2.3-3.3-5.1-7.7-7.7-16.6h-4.9v-8.5h15.1V95h-17.1v-9h17.1V73.8H408.8z M398.4,112.8c1.2,4.7,3.4,8.2,5.4,10.3
			c4.6-4.9,5.9-6.3,7.9-10.3H398.4z"/>
		<path d="M457.6,148.4h-9.4v-31.6c-1.5,1.6-3.1,2.9-4.4,4.2c-1.5-3.5-3.1-6.2-5.1-8.7c4.5-4.1,10.9-10.5,17.8-21l7.3,6.3
			c-2.1,3.3-4.1,6.2-6.2,8.7L457.6,148.4L457.6,148.4z M462.7,79.1c-4.4,4.7-9.6,9-16.8,14c-1.8-2.8-3.8-5.3-6.3-7.4
			c4.8-2.9,8.9-5.9,16.2-13.1L462.7,79.1z M473.6,107.8c-0.6,8.6-2.6,20-6.1,32.1c-2.9-1.1-5.5-2.1-8.7-2.3c3.8-12.4,4.4-18,5.8-31
			L473.6,107.8z M483,80.5l5.4-3.7c1.8,1.8,3.5,4.1,5.8,7.4v-7.9h20.3v9.2h-19.3l0.7,0.8l-4.4,2.9h2.8v9.1H483v49.9h-9.1V98.3h-10
			v-9.1h10V74.5h9.1V80.5z M488,89.2c-0.9-1.5-2.3-3.5-5-7v7H488z M492.2,106.9c1.1,9.8,2.6,18.2,5.2,26.6c-2.6,0.5-5.7,1.3-8.6,2.2
			c-2.3-7.9-4.5-19.8-4.9-27.4L492.2,106.9z M516.4,98.8v9.4h-5.9v32.5c0,4.4-1.3,8.2-15.1,8.7c0-3.3-0.8-6-2.6-9.1h6.7
			c0.8,0,1.3-0.4,1.3-1.3v-30.8h-6.5v-9.4C494.3,98.8,516.4,98.8,516.4,98.8z"/>
		<path d="M554.8,96.7c3-5.8,6.4-12,10-23.4l9.7,2.8c-0.9,2-4.8,11-5.6,12.8h9.9c2.1-4.9,4.3-11.2,5.6-15L594,77
			c-2.3,4.6-5.3,11-5.7,12h14.2v8.7h-15.8v7.9h12.5v8.2h-12.5v7.9h12.5v8.4h-12.5v7.9H603v8.5h-35v2.6h-8.9v-42
			c-0.8,1.3-1.6,2.8-2.4,4.2l-1.9-3v5.9c-2.5,1-5,1.8-7.4,2.8v22.6c0,7.3-3.1,9.3-15,9.9c-0.3-3.1-1.2-6.4-2.8-9.4h7
			c0.9,0,1.5-0.5,1.5-1.9v-17.8c-2.9,1.2-5.9,2.3-8.4,3.3l-2.4-9.5c3.4-0.9,7.4-2.1,10.9-3.3V98.4h-9.4V89h9.4V73.6h9.3v15.3h7.5
			v7.8H554.8z M551,102.9c1.3-1.8,2.1-3.3,2.8-4.5h-6.5v9.4c2-0.8,4.3-1.5,6-2.2L551,102.9z M568,97.6v7.9h9.5v-7.9H568z M568,113.7
			v7.9h9.5v-7.9H568z M568,129.9v7.9h9.5v-7.9H568z"/>
		<path d="M642.3,102.3c-1.7,2.5-3.3,4.6-5,6.4c-0.8-1.8-1.5-3.3-2.3-4.6v28.2c3.8,2.8,9.9,7.4,29.8,7.4h17.1c2.9,0,4.9,0,11.5-0.2
			c-1.6,2.8-2.5,5.9-3,8.8h-24.2c-19,0-26.7-2.7-33.4-7.9c-3.6,2.5-11.3,8.5-13,9.8l-5.5-9.2c3.4-2.2,7.2-4.3,11-6.7V113h-8.9v-9.4
			h18.3c-0.9-1.5-1.8-2.8-3-4.1c7.9-8.9,11.3-13.8,17.4-27.5l9.4,3.7c-1.6,3.4-3.3,6.9-4.9,9.9h9.4c1.5-4.1,3-8.4,4.4-12.7l9.9,2.7
			l-4.8,10h18v8.2h-18.9v5.3h14.9v7.7h-14.9v5.5h14.9v7.8h-14.9v5.7h20.1v8.1h-39.8v2.2h-9.5L642.3,102.3L642.3,102.3z M623.8,74.2
			c4.8,2.7,9.7,5.9,13.8,8.7l-5.8,8.6c-3.9-3.4-8.5-6.5-13.2-9.2L623.8,74.2z M651.8,93.9v5.3h10.1v-5.3H651.8z M651.8,106.9v5.5
			h10.1v-5.5H651.8z M651.8,120.2v5.7h10.1v-5.7H651.8z"/>
		<path d="M719.4,73.9v15.9h5.9V99h-5.9v49.9h-9.3V99h-6.5v-9.3h6.5V73.9H719.4z M723.6,122.9v-8.1h6.3c0.2-2,0.3-4.4,0.3-6.9h8.6
			c0,2.3-0.3,4.7-0.4,6.9h11.1c-0.6,11.9-0.9,20.3-1.8,25.2c-0.9,4.6-2.7,7.5-11.9,8.5c-0.3-3-1.2-5.6-2.6-8.6h3.7
			c1.9,0,2.3-0.5,2.5-1.9c0.8-3.8,1.1-10,1.3-15.1h-3c-2.9,14.5-7,20.6-11.4,25.9c-2-2.4-4.1-4.3-6.4-6.4c3.6-4.7,6.6-8.6,8.7-19.6
			L723.6,122.9L723.6,122.9z M729.5,89.8v-8.4h13.2c0.4-2,0.5-4.7,0.8-7.4h10.7c-0.3,2.7-0.5,5.3-0.8,7.4H772
			c-0.1,4.7-0.4,13.5-1.6,17.9c-1,4.3-2,5.5-14,6.4c-0.3-2.7-1-5.5-2.2-8.4h4.7c2.2,0,2.7,0,3.1-7.5h-11.1
			c-2.5,5.1-7.4,13.5-23.6,18.7c-0.9-3-1.9-5.5-4-8.8c6.2-1.7,11.6-3.5,16.5-9.9C739.8,89.8,729.5,89.8,729.5,89.8z M751.6,122.9
			v-8.1h5.6c0.1-1.9,0.2-4.6,0.2-6.9h9.1c0,2.3-0.2,4.7-0.3,6.9h11.4c-0.2,5.9-0.7,24.9-2.4,29.5c-1.3,3-4.3,3.8-11.1,4.5
			c-0.4-2.9-1.3-5.7-2.8-8.6h4.3c1.7-0.4,2-2.2,2.1-2.6c0.5-2.4,0.9-12.8,1.1-14.7h-3.3c-1.3,10-5.3,18.4-12.5,27
			c-2-2.7-3.9-4.7-6.1-6.7c4.9-6.4,5.8-8.4,7.5-12.9c0.7-1.6,1.6-3.7,2-7.4H751.6z"/>
		<path d="M835.2,75.5l-1.3,1.3c6.1,7.1,14.9,17.1,35.1,25.2c-2.6,2.4-5.1,5.3-6.5,8.8c-4.3-2.1-9-4.5-14-8v5.3h-41.6v-4.9
			c-4.2,3.2-8.4,5.9-12.2,7.8c-1.3-3-3.1-6.1-5.3-8.4c14.5-8.1,21.6-15.5,27-21.2c2-2,4.3-4.6,7.9-9.3L835.2,75.5z M843,123.8
			c6,5.3,8.4,8.1,10.8,10.9c2.3,2.7,4.4,5.3,7.4,9.5l-8.3,5.9c-1.5-2.3-3.2-4.7-5-6.9c-16,2.9-24.9,4-49.7,6.7l-2.4-10.4l10.8-0.5
			c2-4.9,4.3-10.6,6.1-15.1h-19.1V115h70.6v8.9L843,123.8L843,123.8z M843.3,99.1c-7.8-6.3-11.2-9.8-15.7-15.5
			c-7.8,8.4-10.3,11-15.8,15.5H843.3z M842.6,123.8h-18.3c-2.2,4.5-5.1,10.4-6.9,14.5c8-0.6,17-1.5,24.4-2.6c-1.9-2.1-4-4.3-6.2-6.5
			L842.6,123.8z"/>
	</g>
	<g>
		<g>
			<path class="st10" d="M125,77.5c-8.6,9-22.5,11.3-33.8,4.8c-2.3-1.3-4.3-2.9-6.1-4.8"/>
			<path class="st10" d="M144.9,112c-2.5-0.6-4.9-1.6-7.2-2.9c-11.2-6.5-16.2-19.7-12.8-31.6"/>
			<path class="st10" d="M65.2,112c2.5,0.6,4.9,1.6,7.2,2.9c11.2,6.5,16.2,19.7,12.8,31.6"/>
			<path class="st10" d="M85.1,146.5c8.6-8.9,22.5-11.2,33.8-4.7c2.3,1.3,4.3,2.9,6.1,4.8"/>
			<path class="st10" d="M125,146.6c-2-7-1.3-14.7,2.6-21.5s10.3-11.3,17.3-13"/>
			<path class="st10" d="M85.1,77.5c2,7,1.3,14.7-2.6,21.5s-10.3,11.3-17.3,13"/>
			<line class="st10" x1="65.2" y1="112" x2="65.2" y2="112"/>
			<path class="st10" d="M85.1,146.5"/>
			<path class="st10" d="M125,146.5"/>
			<path class="st10" d="M144.9,112"/>
			<path class="st10" d="M125,77.5"/>
			<path class="st10" d="M85.1,77.5"/>
		</g>
		<g>
			<path class="st10" d="M159.2,57.7c-6.6-0.7-13.1-2.8-19.1-6.3C134,47.9,129,43.3,125,38"/>
			<path class="st10" d="M125,38c2.6,6,4.1,12.7,4.1,19.7s-1.5,13.7-4.1,19.8"/>
			<path class="st10" d="M125,77.5c3.9-5.3,9-9.9,15.1-13.4s12.6-5.6,19.1-6.3"/>
		</g>
		<g>
			<path class="st10" d="M125,186.1c3.9-5.3,9-9.9,15.1-13.4s12.6-5.6,19.1-6.3"/>
			<path class="st10" d="M159.2,166.3c-6.6-0.7-13.1-2.8-19.1-6.3c-6.1-3.5-11.1-8.1-15.1-13.4"/>
			<path class="st10" d="M125,146.6c2.6,6.1,4.1,12.7,4.1,19.8c0,7-1.5,13.7-4.1,19.7"/>
		</g>
		<g>
			<path class="st10" d="M31,92.3c2.6,6,4.1,12.7,4.1,19.7s-1.5,13.7-4.1,19.7"/>
			<path class="st10" d="M31,131.8c3.9-5.3,9-9.9,15.1-13.4s12.6-5.6,19.2-6.3"/>
			<path class="st10" d="M65.2,112c-6.6-0.7-13.1-2.8-19.2-6.3s-11.1-8.1-15.1-13.4"/>
		</g>
	</g>
	<g>
		<path d="M199.8,53.8v3.5h-23.7v-3.5H199.8z"/>
		<path d="M213.6,46.1v7.4l1-0.1v2.5l-1,0.1v9.1c1.9-0.7,3.4-1.5,5.1-2.8c-0.7-1-1.5-2.3-2.3-4.5H215V55h9.5l0.3-0.2l2.1,1.9
			c-1.3,2.5-2.1,3.7-3.8,5.8c1.4,1.1,2.9,2.1,5,2.8c-0.9,0.8-1.5,1.8-2,2.8c-1.5-0.7-3.1-1.5-5.3-3.5c-2.4,1.8-3.7,2.6-5.8,3.5
			c-0.4-0.9-1-1.7-1.5-2.3c-0.3,1.2-1,1.8-4.1,2c-0.1-0.9-0.4-1.8-0.9-2.7h2c0.4,0,0.4-0.1,0.4-0.4v-8.3l-1.1,0.2v7.1h-2.2v-6.9
			l-1,0.1c-0.1,5.8-0.5,8.1-1.7,11c-0.7-0.7-1.5-1.3-2.4-1.7c0.8-2,1.4-3.9,1.5-9l-1.2,0.1l-0.5-2.8l1.7-0.1v-8.3h3.2
			c0.2-0.9,0.4-2.2,0.6-3.3l3,0.5c-0.2,0.9-0.5,2-0.8,2.8C210,46.1,213.6,46.1,213.6,46.1z M206.7,48.8v5.5l4.3-0.4v-5.1H206.7z
			 M209.1,49.3c0.5,1,1,2.2,1.3,3.4l-2.3,0.8c-0.3-1.1-0.7-2.1-1.2-3.5L209.1,49.3z M224.4,44.2v6.5c0,0.5,0.2,0.5,0.4,0.5
			c0.3,0,0.4,0,0.4,0c0.2-0.2,0.4-1.2,0.5-2c0.8,0.4,1.6,0.8,2.6,1c-0.7,3.4-1.1,3.6-3.6,3.6c-1.5,0-1.8,0-2.2-0.3
			c-0.3-0.2-1.1-0.6-1-1.8V47h-2.2c-0.2,3.9-1.3,5.8-3.9,7.7c-0.4-0.9-1.1-1.8-1.8-2.4c2.8-2.1,2.8-4.5,2.8-8.1
			C216.4,44.2,224.4,44.2,224.4,44.2z M219.5,57.8c0.3,0.8,0.8,1.8,1.4,2.5c0.7-0.8,1.3-1.7,1.8-2.5H219.5z"/>
		<path d="M237.1,43.3v4h2.2l0.3-0.1l1.9,1.9c-1.5,2.5-1.9,3.2-3.6,5.4c1,1.3,2.2,2.4,3.5,3.5c-0.7,0.8-1.4,1.7-2.1,2.6
			c-0.8-0.7-1.6-1.6-2.3-2.5v10h-3.2v-9.2c-0.8,0.7-1.6,1.4-2.5,2c-0.4-1.1-0.9-2.2-1.5-3.2c2.4-1.6,4.6-3.3,7.3-7.2h-6.4v-3.1h3.1
			v-4h3.3V43.3z M249.1,43.3v8.2h5.3v3.2h-5.3V64h6.1v3.3h-16.4V64h6.8v-9.3h-4.9v-3.2h4.9v-8.2H249.1z"/>
		<path d="M281.4,44.2V68H278v-1.3h-16.1v1.4h-3.3V44.2H281.4z M261.9,47v16.9H278V47H261.9z M271.4,47.6h3.2v3h2.8v2.8h-2.8v6.9
			c0,1.2-0.2,1.7-1.3,2.2c-0.8,0.4-2.1,0.7-3.6,0.8c-0.1-1-0.5-1.9-1.1-3h2.4c0.3,0,0.4-0.1,0.4-0.4v-6.5h-8.9v-2.8h8.9V47.6z
			 M266,53.8c1,1.1,2.1,2.3,3,3.5l-2.3,1.9c-0.9-1.2-1.8-2.3-2.9-3.5L266,53.8z"/>
		<path d="M284.5,66.1c2.6-5.1,3-6,3.9-8.3c1,0.7,1.8,1.1,2.7,1.7c-0.4,0.9-2.8,6.4-3.6,8.3L284.5,66.1z M286.3,50.2
			c1.4,0.7,2.8,1.4,4,2.3l-1.6,2.6c-1.2-0.9-2.5-1.6-3.9-2.3L286.3,50.2z M287.4,43.5c1.4,0.8,2.8,1.7,4.2,2.7l-1.7,2.7
			c-1.1-0.9-2.5-1.9-4.1-2.8L287.4,43.5z M301.8,43.3v4.3h6.2v2.9h-6.2v3.3h7.7v2.9h-8.6c-1.1,2.5-2.5,5.8-3,6.9
			c1.6-0.1,4.7-0.4,5.9-0.6c-0.5-1-1.4-2.2-2.3-3.5l2.7-1.6c1.4,1.9,2.8,4,3.6,5.3c0.4,0.7,0.9,1.5,1.8,3.2l-3,1.8
			c-0.4-0.9-0.8-1.6-1.3-2.5c-2.2,0.3-11.8,1.6-13.8,1.8l-0.7-3.4c1.2-0.1,2.5-0.1,3.6-0.2c0.2-0.7,1.5-3.8,1.8-4.5
			c0.2-0.6,0.5-1.3,1-2.7H291v-2.9h7.3v-3.3h-5.6v-2.9h5.6v-4.3C298.3,43.3,301.8,43.3,301.8,43.3z"/>
		<path d="M326.3,43.7c0,1.9-0.1,3.9-0.2,5.8c0.4,1.6,0.6,2.5,0.9,3.1c2.3,6.6,5.9,9.6,10.7,12.2c-0.9,0.8-1.7,1.9-2.1,3.1
			c-4-2.3-7.9-5.5-10.6-12.2c-0.5,1.5-1.4,4.1-4.4,7.4c-1.5,1.6-2.8,2.9-6.2,5c-0.6-1.1-1.3-2.1-2.3-3c9.9-5,10.8-12,10.8-21.5h3.4
			V43.7z"/>
	</g>
</g>
</svg>
